<?xml version="1.0" encoding="UTF-8" standalone="no"?><!DOCTYPE svg PUBLIC "-//W3C//DTD SVG 1.1//EN" "http://www.w3.org/Graphics/SVG/1.1/DTD/svg11.dtd"><svg width="100%" height="100%" viewBox="0 0 156 84" version="1.1" xmlns="http://www.w3.org/2000/svg" xmlns:xlink="http://www.w3.org/1999/xlink" xml:space="preserve" xmlns:serif="http://www.serif.com/" style="fill-rule:evenodd;clip-rule:evenodd;stroke-linejoin:round;stroke-miterlimit:2;"><path d="M33.879,26.192l-32.446,0l0,3.273l34.347,0l-1.9,-3.273Z" style="fill:#1a4796;fill-rule:nonzero;"/><path d="M48.99,26.192l0,3.273l37.85,0c-1.058,-0.871 -2.08,-1.416 -2.758,-1.637c0.634,-0.353 1.443,-0.889 2.257,-1.636l-37.35,0Z" style="fill:#1a4796;fill-rule:nonzero;"/><path d="M73.454,20.239c0,1.171 -0.352,1.956 -0.918,2.448c-0.569,0.494 -1.354,0.691 -2.22,0.691l-3.66,0l0,-6.28l3.66,0c1.734,0 3.138,0.796 3.138,3.141m-54.367,-2.093l0,-13.253l10.436,0l-10.436,13.253Zm90.392,6.397l12.072,0l-2.874,-19.65l8.28,0l-3.413,19.65l30.578,0l0,-21.299l-152.69,0l0,21.299l33.616,-0l13.942,-19.65l0,19.65l38.836,0c1.211,-1.636 3.347,-3.859 3.347,-6.786c0,-11.681 -14.114,-12.864 -18.431,-12.864l18.431,0l0,19.65l18.307,0" style="fill:#1a4796;fill-rule:nonzero;"/><path d="M91.172,52.221l-16.783,0c11.071,0 16.783,-6.188 16.783,-13.662l0,13.662Zm-18.648,-14.352c-0.569,0.494 -1.354,0.691 -2.22,0.691l-3.66,0l0,-6.28l3.66,0c1.734,0 3.138,0.796 3.138,3.141c0,1.171 -0.352,1.956 -0.918,2.448m-53.438,14.352l0,-7.57l3.094,-6.092l6.058,13.662l-9.152,0Zm117.381,0l-5.556,0l3.614,-21.107l-23.961,0l3.235,21.107l-4.973,0l0,-21.107l-17.654,0l0,7.446c0,-0.6 -0.043,-1.174 -0.121,-1.723c-0.052,-0.366 -0.121,-0.721 -0.204,-1.064c-0.083,-0.344 -0.18,-0.676 -0.289,-0.997c-0.493,-1.445 -1.237,-2.664 -2.065,-3.661l-39.503,0l0,21.107l-12.254,-21.107l-35.304,0l0,22.755l152.69,0l0,-22.755l-17.655,0l0,21.107Z" style="fill:#1a4796;fill-rule:nonzero;"/><path d="M2.295,64.801l-0.018,-2.196l0.708,-0.862l1.406,2.132l0.608,0.934c0.027,0.045 0.082,0.073 0.127,0.073l0.88,0c0.036,0 0.054,-0.036 0.036,-0.063l-2.504,-3.747l2.078,-2.477c0.027,-0.027 0.009,-0.063 -0.027,-0.063l-0.844,0c-0.045,0 -0.1,0.027 -0.136,0.063l-2.341,3.012l0.027,-2.994c0,-0.045 -0.036,-0.082 -0.082,-0.082l-0.699,0c-0.045,0 -0.082,0.036 -0.082,0.082l0.027,3.012l-0.027,3.176c0,0.045 0.036,0.082 0.082,0.082l0.699,0c0.045,0 0.082,-0.036 0.082,-0.082" style="fill:#1a4796;fill-rule:nonzero;"/><path d="M7.539,64.801l-0.027,-2.985l3.393,0l-0.036,2.985c0,0.045 0.036,0.082 0.082,0.082l0.708,0c0.045,0 0.082,-0.036 0.082,-0.082l-0.036,-3.058l0.036,-3.13c0,-0.045 -0.036,-0.082 -0.082,-0.082l-0.708,0c-0.045,0 -0.082,0.036 -0.082,0.082l0.027,2.522l-3.375,0l0.018,-2.522c0,-0.045 -0.036,-0.082 -0.082,-0.082l-0.708,0c-0.045,0 -0.082,0.036 -0.082,0.082l0.036,3.13l-0.036,3.058c0,0.045 0.036,0.082 0.082,0.082l0.708,0c0.045,0 0.082,-0.036 0.082,-0.082" style="fill:#1a4796;fill-rule:nonzero;"/><path d="M15.634,64.302c-1.343,0 -2.16,-0.98 -2.16,-2.586c0,-1.624 0.799,-2.604 2.16,-2.604c1.351,0 2.168,0.989 2.168,2.604c0,1.615 -0.817,2.586 -2.168,2.586m0,-5.888c-1.833,0 -3.031,1.27 -3.031,3.303c0,1.978 1.198,3.284 3.031,3.284c1.823,0 3.039,-1.298 3.039,-3.284c0,-2.042 -1.207,-3.303 -3.039,-3.303" style="fill:#1a4796;fill-rule:nonzero;"/><path d="M20.352,61.626l0.027,-2.422l1.524,0c0.898,0 1.425,0.408 1.425,1.216c0,0.853 -0.572,1.207 -1.415,1.207l-1.561,0Zm3.919,3.185l-1.66,-2.595c0.953,-0.191 1.542,-0.799 1.542,-1.815c0,-1.243 -0.88,-1.869 -2.332,-1.869l-2.223,0c-0.045,0 -0.082,0.036 -0.082,0.082l0.037,3.003l-0.037,3.185c0,0.045 0.037,0.082 0.082,0.082l0.708,0c0.045,0 0.082,-0.036 0.082,-0.082l-0.027,-2.513l1.361,0l0.971,1.497l0.599,1.025c0.027,0.045 0.082,0.072 0.127,0.072l0.817,0c0.036,0 0.054,-0.036 0.036,-0.072" style="fill:#1a4796;fill-rule:nonzero;"/><path d="M27.575,59.149l1.071,3.121l-2.123,0l1.052,-3.121Zm-2.014,5.734c0.045,0 0.091,-0.036 0.109,-0.082l0.608,-1.814l2.613,0l0.626,1.814c0.018,0.045 0.063,0.082 0.109,0.082l0.717,0c0.045,0 0.063,-0.036 0.054,-0.072l-2.205,-6.206c-0.018,-0.036 -0.063,-0.072 -0.109,-0.072l-0.943,0c-0.046,0 -0.091,0.036 -0.109,0.072l-2.223,6.206c-0.009,0.036 0.018,0.072 0.054,0.072l0.699,0Z" style="fill:#1a4796;fill-rule:nonzero;"/><path d="M31.114,64.883l0.708,0c0.045,0 0.082,-0.036 0.082,-0.082l-0.036,-2.686l2.822,0c0.045,0 0.082,-0.036 0.082,-0.082l0,-0.517c0,-0.045 -0.036,-0.082 -0.082,-0.082l-2.822,0l0.036,-2.223l2.94,0c0.045,0 0.082,-0.036 0.082,-0.082l0,-0.517c0,-0.045 -0.036,-0.082 -0.082,-0.082l-3.729,0c-0.045,0 -0.082,0.036 -0.082,0.082l0.036,3.094l-0.036,3.094c0,0.045 0.036,0.082 0.082,0.082" style="fill:#1a4796;fill-rule:nonzero;"/><path d="M35.842,64.883l0.699,0c0.045,0 0.082,-0.036 0.082,-0.082l-0.036,-3.148l0.036,-3.039c0,-0.045 -0.036,-0.082 -0.082,-0.082l-0.699,0c-0.045,0 -0.082,0.036 -0.082,0.082l0.036,3.039l-0.036,3.148c0,0.045 0.036,0.082 0.082,0.082" style="fill:#1a4796;fill-rule:nonzero;"/><path d="M42.003,64.23l-1.615,0l-0.036,-2.377l1.651,0c0.799,0 1.515,0.318 1.515,1.152c0,0.907 -0.626,1.225 -1.515,1.225m-1.615,-5.054l1.615,0c0.789,0 1.334,0.327 1.334,1.034c0,0.708 -0.517,0.998 -1.334,0.998l-1.651,0l0.036,-2.032Zm3.983,3.82c-0.009,-0.735 -0.418,-1.288 -1.37,-1.515c0.762,-0.182 1.179,-0.617 1.179,-1.425c0,-1.007 -0.889,-1.524 -2.168,-1.524l-2.413,0c-0.045,0 -0.082,0.036 -0.082,0.082l0.037,3.003l-0.037,3.185c0,0.045 0.037,0.082 0.082,0.082l2.423,0c1.27,0 2.35,-0.535 2.35,-1.887" style="fill:#1a4796;fill-rule:nonzero;"/><path d="M49.824,58.532l-0.653,0c-0.045,0 -0.082,0.036 -0.082,0.082l0.018,1.887l0,1.978c0,1.08 -0.445,1.805 -1.551,1.805c-1.08,0 -1.515,-0.726 -1.515,-1.805l0,-1.996l0.018,-1.869c0,-0.045 -0.036,-0.082 -0.082,-0.082l-0.717,0c-0.045,0 -0.082,0.036 -0.082,0.082l0.027,1.887l-0.009,1.978c0,1.597 0.789,2.522 2.359,2.522c1.57,0 2.331,-0.926 2.331,-2.522l0,-1.978l0.018,-1.887c0,-0.045 -0.036,-0.082 -0.082,-0.082" style="fill:#1a4796;fill-rule:nonzero;"/><path d="M55.731,63.023c0,-2.486 -4.137,-1.234 -4.137,-2.867c0,-0.717 0.599,-1.043 1.479,-1.043c1.025,0 1.561,0.408 1.633,1.225c0.009,0.045 0.045,0.082 0.09,0.082l0.717,0c0.046,0 0.082,-0.036 0.073,-0.082c-0.136,-1.306 -1.035,-1.914 -2.486,-1.914c-1.406,0 -2.331,0.653 -2.331,1.814c0,2.423 4.137,1.143 4.137,2.894c0,0.835 -0.672,1.179 -1.606,1.179c-1.243,0 -1.697,-0.581 -1.778,-1.533c-0.009,-0.045 -0.046,-0.082 -0.091,-0.082l-0.708,0c-0.045,0 -0.082,0.036 -0.082,0.082c0.063,1.442 1.016,2.214 2.631,2.214c1.443,0 2.459,-0.662 2.459,-1.969" style="fill:#1a4796;fill-rule:nonzero;"/><path d="M56.685,64.883l0.698,0c0.046,0 0.082,-0.036 0.082,-0.082l-0.036,-3.148l0.036,-3.039c0,-0.045 -0.036,-0.082 -0.082,-0.082l-0.698,0c-0.045,0 -0.082,0.036 -0.082,0.082l0.036,3.039l-0.036,3.148c0,0.045 0.036,0.082 0.082,0.082" style="fill:#1a4796;fill-rule:nonzero;"/><path d="M58.618,64.883l0.653,0c0.046,0 0.082,-0.036 0.082,-0.082l-0.009,-2.812l-0.018,-1.678l-0.018,-0.617l3.284,5.117c0.027,0.045 0.082,0.072 0.127,0.072l0.862,0c0.045,0 0.082,-0.036 0.082,-0.082l-0.027,-3.139l0.036,-3.048c0,-0.045 -0.036,-0.082 -0.082,-0.082l-0.644,0c-0.045,0 -0.082,0.036 -0.082,0.082l0.009,2.885l0.018,1.769l0.01,0.544l-3.321,-5.208c-0.027,-0.045 -0.082,-0.073 -0.127,-0.073l-0.826,0c-0.046,0 -0.082,0.036 -0.082,0.082l0.027,3.048l-0.036,3.139c0,0.045 0.036,0.082 0.082,0.082" style="fill:#1a4796;fill-rule:nonzero;"/><path d="M64.779,64.883l3.91,0c0.046,0 0.082,-0.036 0.082,-0.082l0,-0.517c0,-0.045 -0.036,-0.082 -0.082,-0.082l-3.121,0l-0.036,-2.368l2.867,0c0.045,0 0.082,-0.036 0.082,-0.082l0,-0.517c0,-0.045 -0.036,-0.082 -0.082,-0.082l-2.867,0l0.036,-1.942l3.048,0c0.046,0 0.082,-0.036 0.082,-0.082l0,-0.517c0,-0.045 -0.036,-0.082 -0.082,-0.082l-3.838,0c-0.045,0 -0.082,0.036 -0.082,0.082l0.037,2.994l-0.037,3.194c0,0.045 0.037,0.082 0.082,0.082" style="fill:#1a4796;fill-rule:nonzero;"/><path d="M70.36,60.156c0,-0.717 0.599,-1.043 1.479,-1.043c1.025,0 1.561,0.408 1.633,1.225c0.009,0.045 0.045,0.082 0.09,0.082l0.717,0c0.046,0 0.082,-0.036 0.073,-0.082c-0.136,-1.306 -1.035,-1.914 -2.486,-1.914c-1.406,0 -2.331,0.653 -2.331,1.815c0,2.422 4.137,1.143 4.137,2.894c0,0.835 -0.671,1.18 -1.606,1.18c-1.243,0 -1.697,-0.581 -1.778,-1.533c-0.009,-0.045 -0.046,-0.082 -0.091,-0.082l-0.708,0c-0.045,0 -0.082,0.036 -0.082,0.082c0.063,1.443 1.016,2.214 2.631,2.214c1.442,0 2.459,-0.662 2.459,-1.969c0,-2.486 -4.137,-1.234 -4.137,-2.867" style="fill:#1a4796;fill-rule:nonzero;"/><path d="M77.764,64.311c-1.243,0 -1.697,-0.581 -1.778,-1.533c-0.009,-0.045 -0.046,-0.082 -0.091,-0.082l-0.708,0c-0.045,0 -0.082,0.036 -0.082,0.082c0.063,1.442 1.016,2.214 2.631,2.214c1.443,0 2.459,-0.662 2.459,-1.969c0,-2.486 -4.137,-1.234 -4.137,-2.867c0,-0.716 0.599,-1.043 1.479,-1.043c1.025,0 1.561,0.408 1.633,1.225c0.009,0.045 0.045,0.082 0.091,0.082l0.717,0c0.045,0 0.082,-0.036 0.073,-0.082c-0.136,-1.306 -1.035,-1.914 -2.486,-1.914c-1.406,0 -2.331,0.653 -2.331,1.814c0,2.423 4.137,1.143 4.137,2.894c0,0.835 -0.672,1.179 -1.606,1.179" style="fill:#1a4796;fill-rule:nonzero;"/><path d="M82.918,64.883l0.626,0c0.045,0 0.082,-0.036 0.082,-0.082l-0.009,-2.64l-0.018,-1.669l-0.018,-0.88l2.032,5.199c0.018,0.036 0.064,0.072 0.109,0.072l0.518,0c0.045,0 0.09,-0.036 0.109,-0.072l1.96,-5.144l-0.018,0.807l-0.018,1.687l-0.009,2.64c0,0.045 0.036,0.082 0.082,0.082l0.69,0c0.045,0 0.082,-0.036 0.082,-0.082l-0.027,-3.039l0.027,-3.148c0,-0.045 -0.036,-0.082 -0.082,-0.082l-0.916,0c-0.045,0 -0.091,0.036 -0.109,0.073l-1.968,5.217l-2.023,-5.217c-0.018,-0.036 -0.063,-0.073 -0.109,-0.073l-0.98,0c-0.045,0 -0.082,0.036 -0.082,0.082l0.027,3.148l-0.036,3.039c0,0.045 0.036,0.082 0.082,0.082" style="fill:#1a4796;fill-rule:nonzero;"/><path d="M92.527,59.149l1.071,3.121l-2.123,0l1.052,-3.121Zm-2.014,5.734c0.045,0 0.091,-0.036 0.109,-0.082l0.608,-1.814l2.613,0l0.626,1.814c0.018,0.045 0.063,0.082 0.109,0.082l0.717,0c0.045,0 0.063,-0.036 0.054,-0.072l-2.205,-6.206c-0.018,-0.036 -0.063,-0.072 -0.109,-0.072l-0.944,0c-0.045,0 -0.091,0.036 -0.109,0.072l-2.223,6.206c-0.009,0.036 0.018,0.072 0.055,0.072l0.698,0Z" style="fill:#1a4796;fill-rule:nonzero;"/><path d="M101.202,62.642c0,-0.045 -0.027,-0.082 -0.072,-0.082l-0.689,0c-0.045,0 -0.082,0.036 -0.091,0.082c-0.127,1.08 -0.817,1.66 -1.869,1.66c-1.288,0 -2.068,-0.889 -2.068,-2.604c0,-1.57 0.744,-2.586 2.078,-2.586c0.925,0 1.624,0.472 1.823,1.524c0.009,0.045 0.055,0.082 0.1,0.082l0.671,0c0.045,0 0.072,-0.036 0.064,-0.082c-0.3,-1.642 -1.379,-2.223 -2.649,-2.223c-1.823,0 -2.958,1.279 -2.958,3.284c0,2.051 1.098,3.302 2.958,3.302c1.451,0 2.459,-0.744 2.704,-2.359" style="fill:#1a4796;fill-rule:nonzero;"/><path d="M102.092,64.883l0.708,0c0.045,0 0.082,-0.036 0.082,-0.082l-0.027,-2.985l3.393,0l-0.036,2.985c0,0.045 0.036,0.082 0.082,0.082l0.708,0c0.045,0 0.082,-0.036 0.082,-0.082l-0.036,-3.057l0.036,-3.13c0,-0.045 -0.036,-0.082 -0.082,-0.082l-0.708,0c-0.045,0 -0.082,0.036 -0.082,0.082l0.027,2.522l-3.375,0l0.018,-2.522c0,-0.045 -0.036,-0.082 -0.082,-0.082l-0.708,0c-0.045,0 -0.082,0.036 -0.082,0.082l0.036,3.13l-0.036,3.057c0,0.045 0.036,0.082 0.082,0.082" style="fill:#1a4796;fill-rule:nonzero;"/><path d="M108.253,64.883l0.698,0c0.046,0 0.082,-0.036 0.082,-0.082l-0.036,-3.148l0.036,-3.039c0,-0.045 -0.036,-0.082 -0.082,-0.082l-0.698,0c-0.045,0 -0.082,0.036 -0.082,0.082l0.036,3.039l-0.036,3.148c0,0.045 0.036,0.082 0.082,0.082" style="fill:#1a4796;fill-rule:nonzero;"/><path d="M110.186,64.883l0.653,0c0.046,0 0.082,-0.036 0.082,-0.082l-0.009,-2.812l-0.018,-1.678l-0.018,-0.617l3.284,5.117c0.027,0.045 0.082,0.072 0.127,0.072l0.862,0c0.045,0 0.082,-0.036 0.082,-0.082l-0.027,-3.139l0.036,-3.048c0,-0.045 -0.036,-0.082 -0.082,-0.082l-0.644,0c-0.045,0 -0.082,0.036 -0.082,0.082l0.009,2.885l0.018,1.769l0.01,0.544l-3.321,-5.208c-0.027,-0.045 -0.082,-0.073 -0.127,-0.073l-0.826,0c-0.046,0 -0.082,0.036 -0.082,0.082l0.027,3.048l-0.036,3.139c0,0.045 0.036,0.082 0.082,0.082" style="fill:#1a4796;fill-rule:nonzero;"/><path d="M116.347,64.883l3.91,0c0.046,0 0.082,-0.036 0.082,-0.082l0,-0.517c0,-0.045 -0.036,-0.082 -0.082,-0.082l-3.121,0l-0.036,-2.368l2.867,0c0.045,0 0.082,-0.036 0.082,-0.082l0,-0.517c0,-0.045 -0.036,-0.082 -0.082,-0.082l-2.867,0l0.036,-1.942l3.048,0c0.046,0 0.082,-0.036 0.082,-0.082l0,-0.517c0,-0.045 -0.036,-0.082 -0.082,-0.082l-3.838,0c-0.045,0 -0.082,0.036 -0.082,0.082l0.037,2.994l-0.037,3.194c0,0.045 0.037,0.082 0.082,0.082" style="fill:#1a4796;fill-rule:nonzero;"/><path d="M123.633,64.311c-1.243,0 -1.697,-0.581 -1.778,-1.533c-0.009,-0.045 -0.045,-0.082 -0.091,-0.082l-0.707,0c-0.045,0 -0.082,0.036 -0.082,0.082c0.064,1.442 1.016,2.214 2.631,2.214c1.443,0 2.459,-0.662 2.459,-1.969c0,-2.486 -4.137,-1.234 -4.137,-2.867c0,-0.716 0.599,-1.043 1.479,-1.043c1.025,0 1.56,0.408 1.633,1.225c0.009,0.045 0.046,0.082 0.091,0.082l0.717,0c0.045,0 0.082,-0.036 0.072,-0.082c-0.136,-1.306 -1.034,-1.914 -2.486,-1.914c-1.406,0 -2.331,0.653 -2.331,1.814c0,2.423 4.137,1.143 4.137,2.894c0,0.835 -0.671,1.179 -1.606,1.179" style="fill:#1a4796;fill-rule:nonzero;"/><path d="M130.103,66.081c-0.535,-1.216 -0.844,-2.522 -0.844,-3.919c0,-1.397 0.317,-2.667 0.835,-3.829c0.018,-0.036 -0.009,-0.072 -0.046,-0.072l-0.499,0c-0.045,0 -0.1,0.027 -0.118,0.072c-0.562,1.071 -0.935,2.332 -0.935,3.829c0,1.506 0.354,2.731 0.943,3.919c0.018,0.045 0.073,0.073 0.118,0.073l0.499,0c0.036,0 0.063,-0.036 0.045,-0.073" style="fill:#1a4796;fill-rule:nonzero;"/><path d="M135.783,64.801c0.009,0.045 0.055,0.082 0.1,0.082l0.826,0c0.045,0 0.091,-0.036 0.1,-0.082l1.615,-6.188c0.009,-0.045 -0.018,-0.082 -0.063,-0.082l-0.635,0c-0.046,0 -0.091,0.036 -0.1,0.082l-1.306,5.425l-1.261,-5.425c-0.009,-0.045 -0.054,-0.082 -0.1,-0.082l-0.808,0c-0.045,0 -0.091,0.036 -0.1,0.082l-1.243,5.389l-1.306,-5.389c-0.009,-0.045 -0.055,-0.082 -0.1,-0.082l-0.69,0c-0.036,0 -0.073,0.036 -0.063,0.082l1.587,6.188c0.009,0.045 0.055,0.082 0.1,0.082l0.853,0c0.045,0 0.091,-0.036 0.1,-0.082l1.216,-5.117l1.279,5.117Z" style="fill:#1a4796;fill-rule:nonzero;"/><path d="M139.504,64.883c0.045,0 0.082,-0.036 0.082,-0.082l0,-0.789c0,-0.045 -0.036,-0.082 -0.082,-0.082l-0.753,0c-0.045,0 -0.082,0.036 -0.082,0.082l0,0.789c0,0.045 0.036,0.082 0.082,0.082l0.753,0Z" style="fill:#1a4796;fill-rule:nonzero;"/><path d="M140.539,64.883l3.584,0c0.045,0 0.082,-0.036 0.082,-0.082l0,-0.517c0,-0.045 -0.036,-0.082 -0.082,-0.082l-2.804,0l-0.027,-2.686l0.027,-2.903c0,-0.045 -0.036,-0.082 -0.082,-0.082l-0.698,0c-0.046,0 -0.082,0.036 -0.082,0.082l0.036,2.948l-0.036,3.239c0,0.045 0.036,0.082 0.082,0.082" style="fill:#1a4796;fill-rule:nonzero;"/><path d="M145.611,64.883c0.045,0 0.082,-0.036 0.082,-0.082l0,-0.789c0,-0.045 -0.036,-0.082 -0.082,-0.082l-0.753,0c-0.045,0 -0.082,0.036 -0.082,0.082l0,0.789c0,0.045 0.036,0.082 0.082,0.082l0.753,0Z" style="fill:#1a4796;fill-rule:nonzero;"/><path d="M146.646,64.883l3.584,0c0.045,0 0.082,-0.036 0.082,-0.082l0,-0.517c0,-0.045 -0.036,-0.082 -0.082,-0.082l-2.804,0l-0.027,-2.686l0.027,-2.903c0,-0.045 -0.036,-0.082 -0.082,-0.082l-0.698,0c-0.046,0 -0.082,0.036 -0.082,0.082l0.036,2.948l-0.036,3.239c0,0.045 0.036,0.082 0.082,0.082" style="fill:#1a4796;fill-rule:nonzero;"/><path d="M151.718,63.93l-0.753,0c-0.046,0 -0.082,0.036 -0.082,0.082l0,0.789c0,0.045 0.036,0.082 0.082,0.082l0.753,0c0.045,0 0.082,-0.036 0.082,-0.082l0,-0.789c0,-0.045 -0.036,-0.082 -0.082,-0.082" style="fill:#1a4796;fill-rule:nonzero;"/><path d="M153.07,58.26l-0.499,0c-0.036,0 -0.064,0.036 -0.045,0.072c0.517,1.161 0.834,2.432 0.834,3.829c0,1.397 -0.308,2.704 -0.843,3.919c-0.018,0.036 0.009,0.073 0.045,0.073l0.499,0c0.045,0 0.1,-0.027 0.118,-0.073c0.59,-1.188 0.944,-2.413 0.944,-3.919c0,-1.497 -0.372,-2.758 -0.935,-3.829c-0.018,-0.045 -0.072,-0.072 -0.118,-0.072" style="fill:#1a4796;fill-rule:nonzero;"/><path d="M4.864,75.671l-0.804,0.107c-0.44,-0.322 -0.654,-0.761 -0.654,-1.158c0,-0.525 0.375,-0.986 1.094,-0.986c0.729,0 1.051,0.665 1.051,1.158c0,0.493 -0.225,0.815 -0.686,0.879m-0.365,-2.991c-1.104,0 -1.844,0.911 -1.844,1.833c0,0.515 0.171,0.986 0.558,1.383l-0.161,0.021c-0.933,0.128 -1.211,0.44 -1.19,1.404l0.086,3.388l0.74,0l0,-3.313c0,-0.515 0.118,-0.536 0.622,-0.6l1.158,-0.139c1.34,-0.161 1.833,-0.794 1.833,-1.973c0,-1.029 -0.697,-2.005 -1.801,-2.005" style="fill:#1a4796;fill-rule:nonzero;"/><path d="M7.962,75.178c-0.222,0 -0.404,0.073 -0.547,0.22c-0.143,0.147 -0.214,0.334 -0.214,0.563c0,0.229 0.071,0.416 0.214,0.563c0.143,0.147 0.325,0.22 0.547,0.22c0.222,0 0.404,-0.073 0.547,-0.22c0.143,-0.147 0.215,-0.334 0.215,-0.563c0,-0.229 -0.072,-0.416 -0.215,-0.563c-0.143,-0.147 -0.325,-0.22 -0.547,-0.22" style="fill:#1a4796;fill-rule:nonzero;"/><path d="M12.583,75.671l-0.804,0.107c-0.44,-0.322 -0.654,-0.761 -0.654,-1.158c0,-0.525 0.375,-0.986 1.094,-0.986c0.729,0 1.051,0.665 1.051,1.158c0,0.493 -0.225,0.815 -0.686,0.879m-0.365,-2.991c-1.104,0 -1.844,0.911 -1.844,1.833c0,0.515 0.171,0.986 0.558,1.383l-0.161,0.021c-0.933,0.128 -1.211,0.44 -1.19,1.404l0.086,3.388l0.74,0l0,-3.313c0,-0.515 0.118,-0.536 0.622,-0.6l1.158,-0.139c1.34,-0.161 1.833,-0.794 1.833,-1.973c0,-1.029 -0.697,-2.005 -1.801,-2.005" style="fill:#1a4796;fill-rule:nonzero;"/><path d="M15.682,75.178c-0.222,0 -0.404,0.073 -0.547,0.22c-0.143,0.147 -0.214,0.334 -0.214,0.563c0,0.229 0.071,0.416 0.214,0.563c0.143,0.147 0.325,0.22 0.547,0.22c0.222,0 0.404,-0.073 0.547,-0.22c0.143,-0.147 0.215,-0.334 0.215,-0.563c0,-0.229 -0.072,-0.416 -0.215,-0.563c-0.143,-0.147 -0.325,-0.22 -0.547,-0.22" style="fill:#1a4796;fill-rule:nonzero;"/><path d="M19.305,72.165l-0.665,0.632c0.954,0.826 1.651,1.919 1.651,2.584c0,0.182 -0.783,0.365 -1.587,0.365c-0.429,0 -0.954,-0.043 -1.351,-0.107l0.107,0.997c0.322,0.043 0.912,0.075 1.244,0.075c1.662,0 2.337,-0.397 2.337,-1.383c0,-0.997 -0.675,-2.23 -1.737,-3.163" style="fill:#1a4796;fill-rule:nonzero;"/><path d="M19.037,70.063l-0.74,0.729l0.719,0.729l0.74,-0.729l-0.719,-0.729Z" style="fill:#1a4796;"/><path d="M25.127,70.91l0.611,-0.622l0.611,0.622l0.729,-0.74l-0.729,-0.74l-0.611,0.622l-0.611,-0.622l-0.729,0.74l0.729,0.74Z" style="fill:#1a4796;fill-rule:nonzero;"/><path d="M38.036,78.008l-0.611,-0.622l-0.729,0.74l0.729,0.74l0.611,-0.622l0.611,0.622l0.729,-0.74l-0.729,-0.74l-0.611,0.622Z" style="fill:#1a4796;fill-rule:nonzero;"/><path d="M25.62,74.749c-0.686,0 -1.083,-0.182 -1.083,-0.525c0,-0.536 1.019,-1.104 1.973,-1.308l0.021,1.683c-0.236,0.096 -0.568,0.15 -0.911,0.15m15.439,0.375c0,0.408 -0.654,0.547 -1.254,0.547c-0.858,0 -1.276,-0.214 -1.276,-0.665c0,-0.118 0.064,-0.686 0.139,-1.286l-0.729,-0.086c-0.043,0.365 -0.15,1.019 -0.214,1.34c-0.107,0.493 -0.536,0.697 -1.458,0.697l-7.977,0c-0.697,0 -0.997,-0.246 -0.987,-0.858l0.043,-3.42l-0.847,0l0,0.654c-1.694,0.547 -2.745,1.383 -2.745,2.37c0,0.74 0.675,1.265 1.748,1.265c0.397,0 0.761,-0.086 1.062,-0.257c0.011,0.804 0.697,1.211 1.726,1.211l7.977,0c0.9,0 1.576,-0.258 1.865,-0.718c0.278,0.482 0.825,0.718 1.672,0.718l0,0c1.019,0 2.015,-0.397 2.026,-1.598l0.043,-5.64l-0.847,0l0.032,5.725Z" style="fill:#1a4796;fill-rule:nonzero;"/><path d="M43.75,70.246c0.257,0.096 0.429,0.139 0.568,0.139c0.386,0 0.697,-0.268 0.847,-0.75l-0.301,-0.182c-0.171,0.268 -0.321,0.386 -0.515,0.386c-0.129,0 -0.279,-0.043 -0.579,-0.161c-0.258,-0.097 -0.429,-0.139 -0.568,-0.139c-0.386,0 -0.697,0.268 -0.847,0.75l0.3,0.182c0.171,-0.268 0.322,-0.386 0.515,-0.386c0.129,0 0.279,0.043 0.579,0.161" style="fill:#1a4796;fill-rule:nonzero;"/><path d="M46.088,75.339c0,0.172 -0.29,0.29 -0.729,0.354l-1.104,-4.589l-0.847,0.214l1.201,4.428l-0.086,0c-0.483,0 -1.094,-0.064 -1.458,-0.129l0.107,0.997c0.343,0.064 1.051,0.096 1.362,0.096c1.501,0 2.305,-0.579 2.316,-1.673l0.032,-5.64l-0.847,0l0.054,5.94Z" style="fill:#1a4796;fill-rule:nonzero;"/><path d="M48.35,76.636l0.74,0l0.054,-7.237l-0.847,0l0.054,7.237Z" style="fill:#1a4796;fill-rule:nonzero;"/><path d="M55.823,71.371l-0.611,-0.622l-0.729,0.74l0.729,0.74l0.611,-0.622l0.611,0.622l0.729,-0.74l-0.729,-0.74l-0.611,0.622Z" style="fill:#1a4796;fill-rule:nonzero;"/><path d="M58.075,72.84c0.311,0.708 0.547,1.651 0.547,2.198c0,0.365 -1.233,0.654 -2.798,0.654c-2.144,0 -2.83,-0.354 -2.83,-1.394c0,-0.386 0.086,-0.836 0.247,-1.34l-0.59,-0.171c-0.3,0.697 -0.493,1.447 -0.493,1.962c0,1.383 1.019,1.962 3.667,1.962c2.456,0 3.549,-0.536 3.549,-1.737c0,-0.751 -0.225,-1.791 -0.525,-2.456l-0.772,0.322Z" style="fill:#1a4796;fill-rule:nonzero;"/><path d="M64.207,78.845l0.74,-0.729l-0.719,-0.729l-0.74,0.729l0.719,0.729Z" style="fill:#1a4796;"/><path d="M71.691,72.776c0.375,0.707 0.665,1.715 0.665,2.262c0,0.343 -0.44,0.643 -0.965,0.643c-0.483,0 -0.826,-0.289 -0.826,-0.675c0,-0.107 0.054,-0.6 0.139,-1.286l-0.729,-0.086c-0.054,0.461 -0.15,1.083 -0.214,1.34c-0.118,0.483 -0.397,0.707 -0.933,0.707c-0.408,0 -0.708,-0.161 -0.912,-0.482c0.075,-0.257 0.15,-0.558 0.215,-0.912l-0.697,-0.139c-0.3,1.383 -0.558,1.501 -1.448,1.523c-0.857,0 -1.276,-0.214 -1.276,-0.665c0,-0.118 0.064,-0.686 0.139,-1.286l-0.729,-0.086c-0.043,0.365 -0.15,1.019 -0.214,1.34c-0.107,0.493 -0.536,0.697 -1.458,0.697c-0.772,0 -1.093,-0.246 -1.093,-0.858l0.043,-5.415l-0.847,0l0.043,5.736c0.011,0.997 0.633,1.501 1.855,1.501c0.901,0 1.576,-0.257 1.865,-0.718c0.279,0.483 0.826,0.718 1.673,0.718l0,0c0.793,-0.011 1.265,-0.15 1.587,-0.622c0.246,0.397 0.675,0.622 1.222,0.622c0.504,0 1.019,-0.236 1.287,-0.579c0.268,0.343 0.761,0.579 1.222,0.579c1.083,0 1.801,-0.718 1.801,-1.801c0,-0.675 -0.29,-1.801 -0.632,-2.423l-0.783,0.365Z" style="fill:#1a4796;fill-rule:nonzero;"/><path d="M94.849,75.124c0,0.408 -0.654,0.547 -1.254,0.547c-0.707,0 -1.115,-0.139 -1.286,-0.44l0.043,-5.833l-0.847,0l0.032,5.726c0,0.343 -0.472,0.547 -1.254,0.547c-0.761,0 -1.362,-0.311 -1.555,-0.783c0.257,-0.118 0.536,-0.215 0.847,-0.29l0,-0.901l-0.214,0c-0.365,0 -0.719,-0.107 -1.491,-0.407c-0.997,-0.386 -1.566,-0.611 -1.995,-0.611c-0.6,0 -1.072,0.483 -1.286,1.201l0.558,0.29c0.182,-0.322 0.386,-0.515 0.708,-0.515c0.354,0 0.825,0.182 1.694,0.515c0.182,0.064 0.376,0.128 0.568,0.182c-0.322,0.107 -0.686,0.268 -1.201,0.536c-1.126,0.579 -1.866,0.783 -2.756,0.783l-7.977,0c-0.772,0 -1.094,-0.247 -1.094,-0.858l0.043,-5.415l-0.847,0l0.043,5.737c0.011,0.997 0.633,1.501 1.855,1.501l7.977,0c0.986,0 1.801,-0.289 3.185,-1.04c0.268,-0.15 0.514,-0.279 0.74,-0.407c0.3,0.997 0.997,1.447 2.198,1.447l0.001,0c0.697,0 1.372,-0.311 1.64,-0.718c0.289,0.483 0.826,0.718 1.673,0.718l0,0c1.019,0 2.015,-0.397 2.026,-1.598l0.043,-5.64l-0.847,0l0.032,5.726Z" style="fill:#1a4796;fill-rule:nonzero;"/><path d="M102.74,69.827l0.74,-0.729l-0.719,-0.729l-0.74,0.729l0.719,0.729Z" style="fill:#1a4796;"/><path d="M101.4,79.981l-0.611,-0.622l-0.729,0.74l0.729,0.74l0.611,-0.622l0.611,0.622l0.729,-0.74l-0.729,-0.74l-0.611,0.622Z" style="fill:#1a4796;fill-rule:nonzero;"/><path d="M102.719,73.044c-0.536,0 -0.815,-0.225 -0.815,-0.697c0,-0.515 0.322,-0.965 0.793,-0.965c0.525,0 0.858,0.472 0.976,1.437c-0.236,0.15 -0.59,0.225 -0.954,0.225m1.769,0.976c0,-2.284 -0.515,-3.602 -1.748,-3.602c-0.879,0 -1.566,0.922 -1.566,2.005c0,0.89 0.536,1.491 1.469,1.491c0.408,0 0.804,-0.129 1.072,-0.322l0,0.868c0,0.418 -0.236,0.461 -1.651,0.461l-0.107,0.858c1.072,0.289 1.748,0.654 1.748,0.965c0,0.483 -1.179,1.062 -2.295,1.062c-1.201,0 -1.962,-0.654 -1.962,-1.683c0,-0.558 0.182,-1.136 0.547,-1.715l-0.547,-0.343c-0.515,0.675 -0.815,1.533 -0.815,2.295c0,1.48 1.094,2.423 2.659,2.423c1.512,0 3.152,-0.976 3.152,-2.005c0,-0.472 -0.375,-0.9 -0.847,-1.19c0.718,-0.15 0.89,-0.547 0.89,-1.566" style="fill:#1a4796;fill-rule:nonzero;"/><path d="M105.721,76.636l0.74,0l0.054,-7.237l-0.847,0l0.054,7.237Z" style="fill:#1a4796;fill-rule:nonzero;"/><path d="M123.508,72.047l0.74,-0.729l-0.719,-0.729l-0.74,0.729l0.719,0.729Z" style="fill:#1a4796;"/><path d="M127.357,75.124c0,0.408 -0.654,0.547 -1.254,0.547c-0.761,0 -1.362,-0.311 -1.555,-0.783c0.258,-0.118 0.536,-0.215 0.847,-0.29l0,-0.901l-0.214,0c-0.364,0 -0.718,-0.107 -1.491,-0.407c-0.997,-0.386 -1.565,-0.611 -1.994,-0.611c-0.6,0 -1.072,0.483 -1.287,1.201l0.558,0.29c0.182,-0.322 0.386,-0.515 0.708,-0.515c0.354,0 0.825,0.182 1.694,0.515c0.183,0.064 0.376,0.128 0.568,0.182c-0.322,0.107 -0.686,0.268 -1.201,0.536c-1.126,0.579 -1.865,0.783 -2.756,0.783l-7.977,0c-0.686,0 -0.922,-0.161 -1.158,-0.729c-0.096,-0.225 -0.3,-0.772 -0.472,-1.297l-0.804,0.311c0.311,0.772 0.483,1.286 0.558,1.705c-0.107,1.201 -1.04,2.144 -2.134,2.144c-0.311,0 -0.632,-0.075 -0.954,-0.236l-0.247,0.536c0.408,0.472 0.901,0.675 1.394,0.675c1.136,0 2.294,-1.062 2.584,-2.455c0.354,0.214 0.686,0.311 1.233,0.311l7.977,0c0.986,0 1.801,-0.289 3.184,-1.04c0.268,-0.15 0.515,-0.279 0.74,-0.407c0.3,0.997 0.997,1.447 2.198,1.447l0,0c1.019,0 2.015,-0.397 2.026,-1.598l0.043,-5.64l-0.847,0l0.032,5.726Z" style="fill:#1a4796;fill-rule:nonzero;"/><path d="M129.64,76.636l0.74,0l0.054,-7.237l-0.847,0l0.054,7.237Z" style="fill:#1a4796;fill-rule:nonzero;"/><path d="M134.711,69.431l-0.729,0.74l0.729,0.74l0.611,-0.622l0.611,0.622l0.729,-0.74l-0.729,-0.74l-0.611,0.622l-0.611,-0.622Z" style="fill:#1a4796;fill-rule:nonzero;"/><path d="M135.205,74.749c-0.686,0 -1.083,-0.182 -1.083,-0.525c0,-0.536 1.019,-1.104 1.973,-1.308l0.021,1.683c-0.236,0.096 -0.568,0.15 -0.912,0.15m3.935,-2.777c1.254,-0.622 2.069,-0.997 3.109,-1.405l-0.171,-0.847c-1.201,0.493 -2.477,1.126 -3.689,1.801l-0.139,0.879c1.179,0.772 2.177,1.984 2.177,2.691c0,0.268 -1.361,0.579 -2.551,0.579c-0.697,0 -0.997,-0.247 -0.987,-0.858l0.043,-3.42l-0.847,0l0,0.654c-1.694,0.547 -2.745,1.383 -2.745,2.37c0,0.74 0.675,1.265 1.748,1.265c0.397,0 0.761,-0.086 1.062,-0.257c0.011,0.804 0.697,1.211 1.726,1.211l0,0c2.144,0 3.302,-0.536 3.302,-1.512c0,-1.008 -0.761,-2.166 -2.037,-3.152" style="fill:#1a4796;fill-rule:nonzero;"/><path d="M150.612,71.564l-0.611,-0.622l-0.729,0.74l0.729,0.751l0.611,-0.633l0.611,0.633l0.729,-0.751l-0.729,-0.74l-0.611,0.622Z" style="fill:#1a4796;fill-rule:nonzero;"/><path d="M149.872,70.214l0.729,0.74l0.729,-0.74l-0.729,-0.751l-0.729,0.751Z" style="fill:#1a4796;fill-rule:nonzero;"/><path d="M152.274,72.776c0.375,0.707 0.665,1.715 0.665,2.262c0,0.343 -0.44,0.643 -0.965,0.643c-0.483,0 -0.826,-0.289 -0.826,-0.675c0,-0.107 0.054,-0.6 0.139,-1.286l-0.729,-0.086c-0.054,0.461 -0.15,1.083 -0.214,1.34c-0.118,0.483 -0.396,0.707 -0.933,0.707c-0.408,0 -0.708,-0.161 -0.912,-0.482c0.075,-0.257 0.15,-0.558 0.215,-0.912l-0.697,-0.139c-0.3,1.383 -0.558,1.501 -1.448,1.523c-0.686,0 -0.922,-0.161 -1.158,-0.729c-0.096,-0.225 -0.3,-0.772 -0.472,-1.298l-0.804,0.311c0.311,0.772 0.482,1.286 0.558,1.705c-0.107,1.201 -1.04,2.144 -2.134,2.144c-0.311,0 -0.632,-0.075 -0.954,-0.236l-0.247,0.536c0.408,0.472 0.901,0.676 1.394,0.676c1.136,0 2.294,-1.062 2.584,-2.456c0.354,0.215 0.686,0.311 1.233,0.311l0,0c0.793,-0.011 1.265,-0.15 1.587,-0.622c0.246,0.397 0.675,0.622 1.222,0.622c0.504,0 1.019,-0.236 1.287,-0.579c0.268,0.343 0.761,0.579 1.222,0.579c1.083,0 1.801,-0.718 1.801,-1.801c0,-0.675 -0.29,-1.801 -0.632,-2.423l-0.783,0.365Z" style="fill:#1a4796;fill-rule:nonzero;"/><rect x="91.173" y="26.192" width="62.95" height="3.273" style="fill:#1a4796;fill-rule:nonzero;"/></svg>